<?xml version="1.0" encoding="utf-8" standalone="no"?>
<!DOCTYPE svg PUBLIC "-//W3C//DTD SVG 1.1//EN"
  "http://www.w3.org/Graphics/SVG/1.1/DTD/svg11.dtd">
<!-- Created with matplotlib (https://matplotlib.org/) -->
<svg height="345.6pt" version="1.1" viewBox="0 0 460.8 345.6" width="460.8pt" xmlns="http://www.w3.org/2000/svg" xmlns:xlink="http://www.w3.org/1999/xlink">
 <defs>
  <style type="text/css">
*{stroke-linecap:butt;stroke-linejoin:round;}
  </style>
 </defs>
 <g id="figure_1">
  <g id="patch_1">
   <path d="M 0 345.6 
L 460.8 345.6 
L 460.8 0 
L 0 0 
z
" style="fill:#ffffff;stroke:#ffffff;stroke-linejoin:miter;"/>
  </g>
  <g id="axes_1">
   <g id="patch_2">
    <path d="M 57.6 307.584 
L 414.72 307.584 
L 414.72 41.472 
L 57.6 41.472 
z
" style="fill:#ffffff;"/>
   </g>
   <g id="matplotlib.axis_1">
    <g id="xtick_1">
     <g id="line2d_1">
      <path d="M 75.082467 307.584 
" style="fill:none;stroke:#000000;stroke-width:1.5;"/>
      <defs>
       <path d="M 0 0 
L 0 2.75 
" id="m55825591c9" style="stroke:#000000;"/>
      </defs>
      <g>
       <use style="stroke:#000000;" x="75.082467" xlink:href="#m55825591c9" y="307.584"/>
      </g>
     </g>
     <g id="text_1">
      <!-- 0 -->
      <defs>
       <path d="M 31.78125 66.40625 
Q 24.171875 66.40625 20.328125 58.90625 
Q 16.5 51.421875 16.5 36.375 
Q 16.5 21.390625 20.328125 13.890625 
Q 24.171875 6.390625 31.78125 6.390625 
Q 39.453125 6.390625 43.28125 13.890625 
Q 47.125 21.390625 47.125 36.375 
Q 47.125 51.421875 43.28125 58.90625 
Q 39.453125 66.40625 31.78125 66.40625 
z
M 31.78125 74.21875 
Q 44.046875 74.21875 50.515625 64.515625 
Q 56.984375 54.828125 56.984375 36.375 
Q 56.984375 17.96875 50.515625 8.265625 
Q 44.046875 -1.421875 31.78125 -1.421875 
Q 19.53125 -1.421875 13.0625 8.265625 
Q 6.59375 17.96875 6.59375 36.375 
Q 6.59375 54.828125 13.0625 64.515625 
Q 19.53125 74.21875 31.78125 74.21875 
z
" id="DejaVuSans-48"/>
      </defs>
      <g style="fill:#4d4d4d;" transform="translate(72.282967 319.220625)scale(0.088 -0.088)">
       <use xlink:href="#DejaVuSans-48"/>
      </g>
     </g>
    </g>
    <g id="xtick_2">
     <g id="line2d_2">
      <path d="M 158.398432 307.584 
" style="fill:none;stroke:#000000;stroke-width:1.5;"/>
      <g>
       <use style="stroke:#000000;" x="158.398432" xlink:href="#m55825591c9" y="307.584"/>
      </g>
     </g>
     <g id="text_2">
      <!-- 30 -->
      <defs>
       <path d="M 40.578125 39.3125 
Q 47.65625 37.796875 51.625 33 
Q 55.609375 28.21875 55.609375 21.1875 
Q 55.609375 10.40625 48.1875 4.484375 
Q 40.765625 -1.421875 27.09375 -1.421875 
Q 22.515625 -1.421875 17.65625 -0.515625 
Q 12.796875 0.390625 7.625 2.203125 
L 7.625 11.71875 
Q 11.71875 9.328125 16.59375 8.109375 
Q 21.484375 6.890625 26.8125 6.890625 
Q 36.078125 6.890625 40.9375 10.546875 
Q 45.796875 14.203125 45.796875 21.1875 
Q 45.796875 27.640625 41.28125 31.265625 
Q 36.765625 34.90625 28.71875 34.90625 
L 20.21875 34.90625 
L 20.21875 43.015625 
L 29.109375 43.015625 
Q 36.375 43.015625 40.234375 45.921875 
Q 44.09375 48.828125 44.09375 54.296875 
Q 44.09375 59.90625 40.109375 62.90625 
Q 36.140625 65.921875 28.71875 65.921875 
Q 24.65625 65.921875 20.015625 65.03125 
Q 15.375 64.15625 9.8125 62.3125 
L 9.8125 71.09375 
Q 15.4375 72.65625 20.34375 73.4375 
Q 25.25 74.21875 29.59375 74.21875 
Q 40.828125 74.21875 47.359375 69.109375 
Q 53.90625 64.015625 53.90625 55.328125 
Q 53.90625 49.265625 50.4375 45.09375 
Q 46.96875 40.921875 40.578125 39.3125 
z
" id="DejaVuSans-51"/>
      </defs>
      <g style="fill:#4d4d4d;" transform="translate(152.799432 319.220625)scale(0.088 -0.088)">
       <use xlink:href="#DejaVuSans-51"/>
       <use x="63.623047" xlink:href="#DejaVuSans-48"/>
      </g>
     </g>
    </g>
    <g id="xtick_3">
     <g id="line2d_3">
      <path d="M 241.714398 307.584 
" style="fill:none;stroke:#000000;stroke-width:1.5;"/>
      <g>
       <use style="stroke:#000000;" x="241.714398" xlink:href="#m55825591c9" y="307.584"/>
      </g>
     </g>
     <g id="text_3">
      <!-- 60 -->
      <defs>
       <path d="M 33.015625 40.375 
Q 26.375 40.375 22.484375 35.828125 
Q 18.609375 31.296875 18.609375 23.390625 
Q 18.609375 15.53125 22.484375 10.953125 
Q 26.375 6.390625 33.015625 6.390625 
Q 39.65625 6.390625 43.53125 10.953125 
Q 47.40625 15.53125 47.40625 23.390625 
Q 47.40625 31.296875 43.53125 35.828125 
Q 39.65625 40.375 33.015625 40.375 
z
M 52.59375 71.296875 
L 52.59375 62.3125 
Q 48.875 64.0625 45.09375 64.984375 
Q 41.3125 65.921875 37.59375 65.921875 
Q 27.828125 65.921875 22.671875 59.328125 
Q 17.53125 52.734375 16.796875 39.40625 
Q 19.671875 43.65625 24.015625 45.921875 
Q 28.375 48.1875 33.59375 48.1875 
Q 44.578125 48.1875 50.953125 41.515625 
Q 57.328125 34.859375 57.328125 23.390625 
Q 57.328125 12.15625 50.6875 5.359375 
Q 44.046875 -1.421875 33.015625 -1.421875 
Q 20.359375 -1.421875 13.671875 8.265625 
Q 6.984375 17.96875 6.984375 36.375 
Q 6.984375 53.65625 15.1875 63.9375 
Q 23.390625 74.21875 37.203125 74.21875 
Q 40.921875 74.21875 44.703125 73.484375 
Q 48.484375 72.75 52.59375 71.296875 
z
" id="DejaVuSans-54"/>
      </defs>
      <g style="fill:#4d4d4d;" transform="translate(236.115398 319.220625)scale(0.088 -0.088)">
       <use xlink:href="#DejaVuSans-54"/>
       <use x="63.623047" xlink:href="#DejaVuSans-48"/>
      </g>
     </g>
    </g>
    <g id="xtick_4">
     <g id="line2d_4">
      <path d="M 325.030363 307.584 
" style="fill:none;stroke:#000000;stroke-width:1.5;"/>
      <g>
       <use style="stroke:#000000;" x="325.030363" xlink:href="#m55825591c9" y="307.584"/>
      </g>
     </g>
     <g id="text_4">
      <!-- 90 -->
      <defs>
       <path d="M 10.984375 1.515625 
L 10.984375 10.5 
Q 14.703125 8.734375 18.5 7.8125 
Q 22.3125 6.890625 25.984375 6.890625 
Q 35.75 6.890625 40.890625 13.453125 
Q 46.046875 20.015625 46.78125 33.40625 
Q 43.953125 29.203125 39.59375 26.953125 
Q 35.25 24.703125 29.984375 24.703125 
Q 19.046875 24.703125 12.671875 31.3125 
Q 6.296875 37.9375 6.296875 49.421875 
Q 6.296875 60.640625 12.9375 67.421875 
Q 19.578125 74.21875 30.609375 74.21875 
Q 43.265625 74.21875 49.921875 64.515625 
Q 56.59375 54.828125 56.59375 36.375 
Q 56.59375 19.140625 48.40625 8.859375 
Q 40.234375 -1.421875 26.421875 -1.421875 
Q 22.703125 -1.421875 18.890625 -0.6875 
Q 15.09375 0.046875 10.984375 1.515625 
z
M 30.609375 32.421875 
Q 37.25 32.421875 41.125 36.953125 
Q 45.015625 41.5 45.015625 49.421875 
Q 45.015625 57.28125 41.125 61.84375 
Q 37.25 66.40625 30.609375 66.40625 
Q 23.96875 66.40625 20.09375 61.84375 
Q 16.21875 57.28125 16.21875 49.421875 
Q 16.21875 41.5 20.09375 36.953125 
Q 23.96875 32.421875 30.609375 32.421875 
z
" id="DejaVuSans-57"/>
      </defs>
      <g style="fill:#4d4d4d;" transform="translate(319.431363 319.220625)scale(0.088 -0.088)">
       <use xlink:href="#DejaVuSans-57"/>
       <use x="63.623047" xlink:href="#DejaVuSans-48"/>
      </g>
     </g>
    </g>
    <g id="xtick_5">
     <g id="line2d_5">
      <path d="M 408.346329 307.584 
" style="fill:none;stroke:#000000;stroke-width:1.5;"/>
      <g>
       <use style="stroke:#000000;" x="408.346329" xlink:href="#m55825591c9" y="307.584"/>
      </g>
     </g>
     <g id="text_5">
      <!-- 120 -->
      <defs>
       <path d="M 12.40625 8.296875 
L 28.515625 8.296875 
L 28.515625 63.921875 
L 10.984375 60.40625 
L 10.984375 69.390625 
L 28.421875 72.90625 
L 38.28125 72.90625 
L 38.28125 8.296875 
L 54.390625 8.296875 
L 54.390625 0 
L 12.40625 0 
z
" id="DejaVuSans-49"/>
       <path d="M 19.1875 8.296875 
L 53.609375 8.296875 
L 53.609375 0 
L 7.328125 0 
L 7.328125 8.296875 
Q 12.9375 14.109375 22.625 23.890625 
Q 32.328125 33.6875 34.8125 36.53125 
Q 39.546875 41.84375 41.421875 45.53125 
Q 43.3125 49.21875 43.3125 52.78125 
Q 43.3125 58.59375 39.234375 62.25 
Q 35.15625 65.921875 28.609375 65.921875 
Q 23.96875 65.921875 18.8125 64.3125 
Q 13.671875 62.703125 7.8125 59.421875 
L 7.8125 69.390625 
Q 13.765625 71.78125 18.9375 73 
Q 24.125 74.21875 28.421875 74.21875 
Q 39.75 74.21875 46.484375 68.546875 
Q 53.21875 62.890625 53.21875 53.421875 
Q 53.21875 48.921875 51.53125 44.890625 
Q 49.859375 40.875 45.40625 35.40625 
Q 44.1875 33.984375 37.640625 27.21875 
Q 31.109375 20.453125 19.1875 8.296875 
z
" id="DejaVuSans-50"/>
      </defs>
      <g style="fill:#4d4d4d;" transform="translate(399.947829 319.220625)scale(0.088 -0.088)">
       <use xlink:href="#DejaVuSans-49"/>
       <use x="63.623047" xlink:href="#DejaVuSans-50"/>
       <use x="127.246094" xlink:href="#DejaVuSans-48"/>
      </g>
     </g>
    </g>
    <g id="xtick_6">
     <g id="line2d_6">
      <path d="M 116.740449 307.584 
" style="fill:none;stroke:#000000;stroke-width:1.5;"/>
      <defs>
       <path d="M 0 0 
L 0 1.375 
" id="mfaad44baff" style="stroke:#000000;"/>
      </defs>
      <g>
       <use style="stroke:#000000;" x="116.740449" xlink:href="#mfaad44baff" y="307.584"/>
      </g>
     </g>
    </g>
    <g id="xtick_7">
     <g id="line2d_7">
      <path d="M 200.056415 307.584 
" style="fill:none;stroke:#000000;stroke-width:1.5;"/>
      <g>
       <use style="stroke:#000000;" x="200.056415" xlink:href="#mfaad44baff" y="307.584"/>
      </g>
     </g>
    </g>
    <g id="xtick_8">
     <g id="line2d_8">
      <path d="M 283.37238 307.584 
" style="fill:none;stroke:#000000;stroke-width:1.5;"/>
      <g>
       <use style="stroke:#000000;" x="283.37238" xlink:href="#mfaad44baff" y="307.584"/>
      </g>
     </g>
    </g>
    <g id="xtick_9">
     <g id="line2d_9">
      <path d="M 366.688346 307.584 
" style="fill:none;stroke:#000000;stroke-width:1.5;"/>
      <g>
       <use style="stroke:#000000;" x="366.688346" xlink:href="#mfaad44baff" y="307.584"/>
      </g>
     </g>
    </g>
    <g id="text_6">
     <!-- Age -->
     <defs>
      <path d="M 34.1875 63.1875 
L 20.796875 26.90625 
L 47.609375 26.90625 
z
M 28.609375 72.90625 
L 39.796875 72.90625 
L 67.578125 0 
L 57.328125 0 
L 50.6875 18.703125 
L 17.828125 18.703125 
L 11.1875 0 
L 0.78125 0 
z
" id="DejaVuSans-65"/>
      <path d="M 45.40625 27.984375 
Q 45.40625 37.75 41.375 43.109375 
Q 37.359375 48.484375 30.078125 48.484375 
Q 22.859375 48.484375 18.828125 43.109375 
Q 14.796875 37.75 14.796875 27.984375 
Q 14.796875 18.265625 18.828125 12.890625 
Q 22.859375 7.515625 30.078125 7.515625 
Q 37.359375 7.515625 41.375 12.890625 
Q 45.40625 18.265625 45.40625 27.984375 
z
M 54.390625 6.78125 
Q 54.390625 -7.171875 48.1875 -13.984375 
Q 42 -20.796875 29.203125 -20.796875 
Q 24.46875 -20.796875 20.265625 -20.09375 
Q 16.0625 -19.390625 12.109375 -17.921875 
L 12.109375 -9.1875 
Q 16.0625 -11.328125 19.921875 -12.34375 
Q 23.78125 -13.375 27.78125 -13.375 
Q 36.625 -13.375 41.015625 -8.765625 
Q 45.40625 -4.15625 45.40625 5.171875 
L 45.40625 9.625 
Q 42.625 4.78125 38.28125 2.390625 
Q 33.9375 0 27.875 0 
Q 17.828125 0 11.671875 7.65625 
Q 5.515625 15.328125 5.515625 27.984375 
Q 5.515625 40.671875 11.671875 48.328125 
Q 17.828125 56 27.875 56 
Q 33.9375 56 38.28125 53.609375 
Q 42.625 51.21875 45.40625 46.390625 
L 45.40625 54.6875 
L 54.390625 54.6875 
z
" id="DejaVuSans-103"/>
      <path d="M 56.203125 29.59375 
L 56.203125 25.203125 
L 14.890625 25.203125 
Q 15.484375 15.921875 20.484375 11.0625 
Q 25.484375 6.203125 34.421875 6.203125 
Q 39.59375 6.203125 44.453125 7.46875 
Q 49.3125 8.734375 54.109375 11.28125 
L 54.109375 2.78125 
Q 49.265625 0.734375 44.1875 -0.34375 
Q 39.109375 -1.421875 33.890625 -1.421875 
Q 20.796875 -1.421875 13.15625 6.1875 
Q 5.515625 13.8125 5.515625 26.8125 
Q 5.515625 40.234375 12.765625 48.109375 
Q 20.015625 56 32.328125 56 
Q 43.359375 56 49.78125 48.890625 
Q 56.203125 41.796875 56.203125 29.59375 
z
M 47.21875 32.234375 
Q 47.125 39.59375 43.09375 43.984375 
Q 39.0625 48.390625 32.421875 48.390625 
Q 24.90625 48.390625 20.390625 44.140625 
Q 15.875 39.890625 15.1875 32.171875 
z
" id="DejaVuSans-101"/>
     </defs>
     <g transform="translate(219.761797 333.809031)scale(0.11 -0.11)">
      <use xlink:href="#DejaVuSans-65"/>
      <use x="68.408203" xlink:href="#DejaVuSans-103"/>
      <use x="131.884766" xlink:href="#DejaVuSans-101"/>
     </g>
    </g>
   </g>
   <g id="matplotlib.axis_2">
    <g id="ytick_1">
     <g id="line2d_10">
      <path d="M 57.6 295.488 
" style="fill:none;stroke:#000000;stroke-width:1.5;"/>
      <defs>
       <path d="M 0 0 
L -2.75 0 
" id="m8be18a8994" style="stroke:#000000;"/>
      </defs>
      <g>
       <use style="stroke:#000000;" x="57.6" xlink:href="#m8be18a8994" y="295.488"/>
      </g>
     </g>
     <g id="text_7">
      <!-- 0% -->
      <defs>
       <path d="M 72.703125 32.078125 
Q 68.453125 32.078125 66.03125 28.46875 
Q 63.625 24.859375 63.625 18.40625 
Q 63.625 12.0625 66.03125 8.421875 
Q 68.453125 4.78125 72.703125 4.78125 
Q 76.859375 4.78125 79.265625 8.421875 
Q 81.6875 12.0625 81.6875 18.40625 
Q 81.6875 24.8125 79.265625 28.4375 
Q 76.859375 32.078125 72.703125 32.078125 
z
M 72.703125 38.28125 
Q 80.421875 38.28125 84.953125 32.90625 
Q 89.5 27.546875 89.5 18.40625 
Q 89.5 9.28125 84.9375 3.921875 
Q 80.375 -1.421875 72.703125 -1.421875 
Q 64.890625 -1.421875 60.34375 3.921875 
Q 55.8125 9.28125 55.8125 18.40625 
Q 55.8125 27.59375 60.375 32.9375 
Q 64.9375 38.28125 72.703125 38.28125 
z
M 22.3125 68.015625 
Q 18.109375 68.015625 15.6875 64.375 
Q 13.28125 60.75 13.28125 54.390625 
Q 13.28125 47.953125 15.671875 44.328125 
Q 18.0625 40.71875 22.3125 40.71875 
Q 26.5625 40.71875 28.96875 44.328125 
Q 31.390625 47.953125 31.390625 54.390625 
Q 31.390625 60.6875 28.953125 64.34375 
Q 26.515625 68.015625 22.3125 68.015625 
z
M 66.40625 74.21875 
L 74.21875 74.21875 
L 28.609375 -1.421875 
L 20.796875 -1.421875 
z
M 22.3125 74.21875 
Q 30.03125 74.21875 34.609375 68.875 
Q 39.203125 63.53125 39.203125 54.390625 
Q 39.203125 45.171875 34.640625 39.84375 
Q 30.078125 34.515625 22.3125 34.515625 
Q 14.546875 34.515625 10.03125 39.859375 
Q 5.515625 45.21875 5.515625 54.390625 
Q 5.515625 63.484375 10.046875 68.84375 
Q 14.59375 74.21875 22.3125 74.21875 
z
" id="DejaVuSans-37"/>
      </defs>
      <g style="fill:#4d4d4d;" transform="translate(38.689625 297.91625)scale(0.088 -0.088)">
       <use xlink:href="#DejaVuSans-48"/>
       <use x="63.623047" xlink:href="#DejaVuSans-37"/>
      </g>
     </g>
    </g>
    <g id="ytick_2">
     <g id="line2d_11">
      <path d="M 57.6 245.027041 
" style="fill:none;stroke:#000000;stroke-width:1.5;"/>
      <g>
       <use style="stroke:#000000;" x="57.6" xlink:href="#m8be18a8994" y="245.027041"/>
      </g>
     </g>
     <g id="text_8">
      <!-- 1% -->
      <g style="fill:#4d4d4d;" transform="translate(38.689625 247.455291)scale(0.088 -0.088)">
       <use xlink:href="#DejaVuSans-49"/>
       <use x="63.623047" xlink:href="#DejaVuSans-37"/>
      </g>
     </g>
    </g>
    <g id="ytick_3">
     <g id="line2d_12">
      <path d="M 57.6 194.566083 
" style="fill:none;stroke:#000000;stroke-width:1.5;"/>
      <g>
       <use style="stroke:#000000;" x="57.6" xlink:href="#m8be18a8994" y="194.566083"/>
      </g>
     </g>
     <g id="text_9">
      <!-- 2% -->
      <g style="fill:#4d4d4d;" transform="translate(38.689625 196.994333)scale(0.088 -0.088)">
       <use xlink:href="#DejaVuSans-50"/>
       <use x="63.623047" xlink:href="#DejaVuSans-37"/>
      </g>
     </g>
    </g>
    <g id="ytick_4">
     <g id="line2d_13">
      <path d="M 57.6 144.105124 
" style="fill:none;stroke:#000000;stroke-width:1.5;"/>
      <g>
       <use style="stroke:#000000;" x="57.6" xlink:href="#m8be18a8994" y="144.105124"/>
      </g>
     </g>
     <g id="text_10">
      <!-- 3% -->
      <g style="fill:#4d4d4d;" transform="translate(38.689625 146.533374)scale(0.088 -0.088)">
       <use xlink:href="#DejaVuSans-51"/>
       <use x="63.623047" xlink:href="#DejaVuSans-37"/>
      </g>
     </g>
    </g>
    <g id="ytick_5">
     <g id="line2d_14">
      <path d="M 57.6 93.644165 
" style="fill:none;stroke:#000000;stroke-width:1.5;"/>
      <g>
       <use style="stroke:#000000;" x="57.6" xlink:href="#m8be18a8994" y="93.644165"/>
      </g>
     </g>
     <g id="text_11">
      <!-- 4% -->
      <defs>
       <path d="M 37.796875 64.3125 
L 12.890625 25.390625 
L 37.796875 25.390625 
z
M 35.203125 72.90625 
L 47.609375 72.90625 
L 47.609375 25.390625 
L 58.015625 25.390625 
L 58.015625 17.1875 
L 47.609375 17.1875 
L 47.609375 0 
L 37.796875 0 
L 37.796875 17.1875 
L 4.890625 17.1875 
L 4.890625 26.703125 
z
" id="DejaVuSans-52"/>
      </defs>
      <g style="fill:#4d4d4d;" transform="translate(38.689625 96.072415)scale(0.088 -0.088)">
       <use xlink:href="#DejaVuSans-52"/>
       <use x="63.623047" xlink:href="#DejaVuSans-37"/>
      </g>
     </g>
    </g>
    <g id="ytick_6">
     <g id="line2d_15">
      <path d="M 57.6 43.183206 
" style="fill:none;stroke:#000000;stroke-width:1.5;"/>
      <g>
       <use style="stroke:#000000;" x="57.6" xlink:href="#m8be18a8994" y="43.183206"/>
      </g>
     </g>
     <g id="text_12">
      <!-- 5% -->
      <defs>
       <path d="M 10.796875 72.90625 
L 49.515625 72.90625 
L 49.515625 64.59375 
L 19.828125 64.59375 
L 19.828125 46.734375 
Q 21.96875 47.46875 24.109375 47.828125 
Q 26.265625 48.1875 28.421875 48.1875 
Q 40.625 48.1875 47.75 41.5 
Q 54.890625 34.8125 54.890625 23.390625 
Q 54.890625 11.625 47.5625 5.09375 
Q 40.234375 -1.421875 26.90625 -1.421875 
Q 22.3125 -1.421875 17.546875 -0.640625 
Q 12.796875 0.140625 7.71875 1.703125 
L 7.71875 11.625 
Q 12.109375 9.234375 16.796875 8.0625 
Q 21.484375 6.890625 26.703125 6.890625 
Q 35.15625 6.890625 40.078125 11.328125 
Q 45.015625 15.765625 45.015625 23.390625 
Q 45.015625 31 40.078125 35.4375 
Q 35.15625 39.890625 26.703125 39.890625 
Q 22.75 39.890625 18.8125 39.015625 
Q 14.890625 38.140625 10.796875 36.28125 
z
" id="DejaVuSans-53"/>
      </defs>
      <g style="fill:#4d4d4d;" transform="translate(38.689625 45.611456)scale(0.088 -0.088)">
       <use xlink:href="#DejaVuSans-53"/>
       <use x="63.623047" xlink:href="#DejaVuSans-37"/>
      </g>
     </g>
    </g>
    <g id="ytick_7">
     <g id="line2d_16">
      <path d="M 57.6 270.257521 
" style="fill:none;stroke:#000000;stroke-width:1.5;"/>
      <defs>
       <path d="M 0 0 
L -1.375 0 
" id="mec03237430" style="stroke:#000000;"/>
      </defs>
      <g>
       <use style="stroke:#000000;" x="57.6" xlink:href="#mec03237430" y="270.257521"/>
      </g>
     </g>
    </g>
    <g id="ytick_8">
     <g id="line2d_17">
      <path d="M 57.6 219.796562 
" style="fill:none;stroke:#000000;stroke-width:1.5;"/>
      <g>
       <use style="stroke:#000000;" x="57.6" xlink:href="#mec03237430" y="219.796562"/>
      </g>
     </g>
    </g>
    <g id="ytick_9">
     <g id="line2d_18">
      <path d="M 57.6 169.335603 
" style="fill:none;stroke:#000000;stroke-width:1.5;"/>
      <g>
       <use style="stroke:#000000;" x="57.6" xlink:href="#mec03237430" y="169.335603"/>
      </g>
     </g>
    </g>
    <g id="ytick_10">
     <g id="line2d_19">
      <path d="M 57.6 118.874645 
" style="fill:none;stroke:#000000;stroke-width:1.5;"/>
      <g>
       <use style="stroke:#000000;" x="57.6" xlink:href="#mec03237430" y="118.874645"/>
      </g>
     </g>
    </g>
    <g id="ytick_11">
     <g id="line2d_20">
      <path d="M 57.6 68.413686 
" style="fill:none;stroke:#000000;stroke-width:1.5;"/>
      <g>
       <use style="stroke:#000000;" x="57.6" xlink:href="#mec03237430" y="68.413686"/>
      </g>
     </g>
    </g>
    <g id="text_13">
     <!-- Frequency -->
     <defs>
      <path d="M 9.8125 72.90625 
L 51.703125 72.90625 
L 51.703125 64.59375 
L 19.671875 64.59375 
L 19.671875 43.109375 
L 48.578125 43.109375 
L 48.578125 34.8125 
L 19.671875 34.8125 
L 19.671875 0 
L 9.8125 0 
z
" id="DejaVuSans-70"/>
      <path d="M 41.109375 46.296875 
Q 39.59375 47.171875 37.8125 47.578125 
Q 36.03125 48 33.890625 48 
Q 26.265625 48 22.1875 43.046875 
Q 18.109375 38.09375 18.109375 28.8125 
L 18.109375 0 
L 9.078125 0 
L 9.078125 54.6875 
L 18.109375 54.6875 
L 18.109375 46.1875 
Q 20.953125 51.171875 25.484375 53.578125 
Q 30.03125 56 36.53125 56 
Q 37.453125 56 38.578125 55.875 
Q 39.703125 55.765625 41.0625 55.515625 
z
" id="DejaVuSans-114"/>
      <path d="M 14.796875 27.296875 
Q 14.796875 17.390625 18.875 11.75 
Q 22.953125 6.109375 30.078125 6.109375 
Q 37.203125 6.109375 41.296875 11.75 
Q 45.40625 17.390625 45.40625 27.296875 
Q 45.40625 37.203125 41.296875 42.84375 
Q 37.203125 48.484375 30.078125 48.484375 
Q 22.953125 48.484375 18.875 42.84375 
Q 14.796875 37.203125 14.796875 27.296875 
z
M 45.40625 8.203125 
Q 42.578125 3.328125 38.25 0.953125 
Q 33.9375 -1.421875 27.875 -1.421875 
Q 17.96875 -1.421875 11.734375 6.484375 
Q 5.515625 14.40625 5.515625 27.296875 
Q 5.515625 40.1875 11.734375 48.09375 
Q 17.96875 56 27.875 56 
Q 33.9375 56 38.25 53.625 
Q 42.578125 51.265625 45.40625 46.390625 
L 45.40625 54.6875 
L 54.390625 54.6875 
L 54.390625 -20.796875 
L 45.40625 -20.796875 
z
" id="DejaVuSans-113"/>
      <path d="M 8.5 21.578125 
L 8.5 54.6875 
L 17.484375 54.6875 
L 17.484375 21.921875 
Q 17.484375 14.15625 20.5 10.265625 
Q 23.53125 6.390625 29.59375 6.390625 
Q 36.859375 6.390625 41.078125 11.03125 
Q 45.3125 15.671875 45.3125 23.6875 
L 45.3125 54.6875 
L 54.296875 54.6875 
L 54.296875 0 
L 45.3125 0 
L 45.3125 8.40625 
Q 42.046875 3.421875 37.71875 1 
Q 33.40625 -1.421875 27.6875 -1.421875 
Q 18.265625 -1.421875 13.375 4.4375 
Q 8.5 10.296875 8.5 21.578125 
z
M 31.109375 56 
z
" id="DejaVuSans-117"/>
      <path d="M 54.890625 33.015625 
L 54.890625 0 
L 45.90625 0 
L 45.90625 32.71875 
Q 45.90625 40.484375 42.875 44.328125 
Q 39.84375 48.1875 33.796875 48.1875 
Q 26.515625 48.1875 22.3125 43.546875 
Q 18.109375 38.921875 18.109375 30.90625 
L 18.109375 0 
L 9.078125 0 
L 9.078125 54.6875 
L 18.109375 54.6875 
L 18.109375 46.1875 
Q 21.34375 51.125 25.703125 53.5625 
Q 30.078125 56 35.796875 56 
Q 45.21875 56 50.046875 50.171875 
Q 54.890625 44.34375 54.890625 33.015625 
z
" id="DejaVuSans-110"/>
      <path d="M 48.78125 52.59375 
L 48.78125 44.1875 
Q 44.96875 46.296875 41.140625 47.34375 
Q 37.3125 48.390625 33.40625 48.390625 
Q 24.65625 48.390625 19.8125 42.84375 
Q 14.984375 37.3125 14.984375 27.296875 
Q 14.984375 17.28125 19.8125 11.734375 
Q 24.65625 6.203125 33.40625 6.203125 
Q 37.3125 6.203125 41.140625 7.25 
Q 44.96875 8.296875 48.78125 10.40625 
L 48.78125 2.09375 
Q 45.015625 0.34375 40.984375 -0.53125 
Q 36.96875 -1.421875 32.421875 -1.421875 
Q 20.0625 -1.421875 12.78125 6.34375 
Q 5.515625 14.109375 5.515625 27.296875 
Q 5.515625 40.671875 12.859375 48.328125 
Q 20.21875 56 33.015625 56 
Q 37.15625 56 41.109375 55.140625 
Q 45.0625 54.296875 48.78125 52.59375 
z
" id="DejaVuSans-99"/>
      <path d="M 32.171875 -5.078125 
Q 28.375 -14.84375 24.75 -17.8125 
Q 21.140625 -20.796875 15.09375 -20.796875 
L 7.90625 -20.796875 
L 7.90625 -13.28125 
L 13.1875 -13.28125 
Q 16.890625 -13.28125 18.9375 -11.515625 
Q 21 -9.765625 23.484375 -3.21875 
L 25.09375 0.875 
L 2.984375 54.6875 
L 12.5 54.6875 
L 29.59375 11.921875 
L 46.6875 54.6875 
L 56.203125 54.6875 
z
" id="DejaVuSans-121"/>
     </defs>
     <g transform="translate(32.001969 201.212656)rotate(-90)scale(0.11 -0.11)">
      <use xlink:href="#DejaVuSans-70"/>
      <use x="50.269531" xlink:href="#DejaVuSans-114"/>
      <use x="89.132812" xlink:href="#DejaVuSans-101"/>
      <use x="150.65625" xlink:href="#DejaVuSans-113"/>
      <use x="214.132812" xlink:href="#DejaVuSans-117"/>
      <use x="277.511719" xlink:href="#DejaVuSans-101"/>
      <use x="339.035156" xlink:href="#DejaVuSans-110"/>
      <use x="402.414062" xlink:href="#DejaVuSans-99"/>
      <use x="457.394531" xlink:href="#DejaVuSans-121"/>
     </g>
    </g>
   </g>
   <g id="PolyCollection_1">
    <path clip-path="url(#pc2ea6591ca)" d="M 75.082467 295.488 
L 75.082467 278.254745 
L 76.332206 278.254745 
L 76.332206 295.488 
z
" style="fill:#57d3db;"/>
    <path clip-path="url(#pc2ea6591ca)" d="M 73.832727 295.488 
L 73.832727 271.444631 
L 75.082467 271.444631 
L 75.082467 295.488 
z
" style="fill:#db5f57;"/>
    <path clip-path="url(#pc2ea6591ca)" d="M 77.859666 295.488 
L 77.859666 293.233861 
L 79.109405 293.233861 
L 79.109405 295.488 
z
" style="fill:#57d3db;"/>
    <path clip-path="url(#pc2ea6591ca)" d="M 76.609926 295.488 
L 76.609926 292.623362 
L 77.859666 292.623362 
L 77.859666 295.488 
z
" style="fill:#db5f57;"/>
    <path clip-path="url(#pc2ea6591ca)" d="M 80.636864 295.488 
L 80.636864 294.518478 
L 81.886604 294.518478 
L 81.886604 295.488 
z
" style="fill:#57d3db;"/>
    <path clip-path="url(#pc2ea6591ca)" d="M 79.387125 295.488 
L 79.387125 293.921019 
L 80.636864 293.921019 
L 80.636864 295.488 
z
" style="fill:#db5f57;"/>
    <path clip-path="url(#pc2ea6591ca)" d="M 83.414063 295.488 
L 83.414063 294.760858 
L 84.663803 294.760858 
L 84.663803 295.488 
z
" style="fill:#57d3db;"/>
    <path clip-path="url(#pc2ea6591ca)" d="M 82.164324 295.488 
L 82.164324 294.214828 
L 83.414063 294.214828 
L 83.414063 295.488 
z
" style="fill:#db5f57;"/>
    <path clip-path="url(#pc2ea6591ca)" d="M 86.191262 295.488 
L 86.191262 294.954763 
L 87.441002 294.954763 
L 87.441002 295.488 
z
" style="fill:#57d3db;"/>
    <path clip-path="url(#pc2ea6591ca)" d="M 84.941523 295.488 
L 84.941523 294.459669 
L 86.191262 294.459669 
L 86.191262 295.488 
z
" style="fill:#db5f57;"/>
    <path clip-path="url(#pc2ea6591ca)" d="M 88.968461 295.488 
L 88.968461 294.833573 
L 90.2182 294.833573 
L 90.2182 295.488 
z
" style="fill:#57d3db;"/>
    <path clip-path="url(#pc2ea6591ca)" d="M 87.718722 295.488 
L 87.718722 294.753478 
L 88.968461 294.753478 
L 88.968461 295.488 
z
" style="fill:#db5f57;"/>
    <path clip-path="url(#pc2ea6591ca)" d="M 91.74566 295.488 
L 91.74566 294.979001 
L 92.995399 294.979001 
L 92.995399 295.488 
z
" style="fill:#57d3db;"/>
    <path clip-path="url(#pc2ea6591ca)" d="M 90.49592 295.488 
L 90.49592 294.900382 
L 91.74566 294.900382 
L 91.74566 295.488 
z
" style="fill:#db5f57;"/>
    <path clip-path="url(#pc2ea6591ca)" d="M 94.522859 295.488 
L 94.522859 295.003239 
L 95.772598 295.003239 
L 95.772598 295.488 
z
" style="fill:#57d3db;"/>
    <path clip-path="url(#pc2ea6591ca)" d="M 93.273119 295.488 
L 93.273119 295.047287 
L 94.522859 295.047287 
L 94.522859 295.488 
z
" style="fill:#db5f57;"/>
    <path clip-path="url(#pc2ea6591ca)" d="M 97.300058 295.488 
L 97.300058 295.172905 
L 98.549797 295.172905 
L 98.549797 295.488 
z
" style="fill:#57d3db;"/>
    <path clip-path="url(#pc2ea6591ca)" d="M 96.050318 295.488 
L 96.050318 294.728993 
L 97.300058 294.728993 
L 97.300058 295.488 
z
" style="fill:#db5f57;"/>
    <path clip-path="url(#pc2ea6591ca)" d="M 100.077256 295.488 
L 100.077256 295.075953 
L 101.326996 295.075953 
L 101.326996 295.488 
z
" style="fill:#57d3db;"/>
    <path clip-path="url(#pc2ea6591ca)" d="M 98.827517 295.488 
L 98.827517 294.875898 
L 100.077256 294.875898 
L 100.077256 295.488 
z
" style="fill:#db5f57;"/>
    <path clip-path="url(#pc2ea6591ca)" d="M 102.854455 295.488 
L 102.854455 295.318334 
L 104.104195 295.318334 
L 104.104195 295.488 
z
" style="fill:#57d3db;"/>
    <path clip-path="url(#pc2ea6591ca)" d="M 101.604716 295.488 
L 101.604716 294.802446 
L 102.854455 294.802446 
L 102.854455 295.488 
z
" style="fill:#db5f57;"/>
    <path clip-path="url(#pc2ea6591ca)" d="M 105.631654 295.488 
L 105.631654 295.245619 
L 106.881394 295.245619 
L 106.881394 295.488 
z
" style="fill:#57d3db;"/>
    <path clip-path="url(#pc2ea6591ca)" d="M 104.381915 295.488 
L 104.381915 294.94935 
L 105.631654 294.94935 
L 105.631654 295.488 
z
" style="fill:#db5f57;"/>
    <path clip-path="url(#pc2ea6591ca)" d="M 108.408853 295.488 
L 108.408853 295.148667 
L 109.658592 295.148667 
L 109.658592 295.488 
z
" style="fill:#57d3db;"/>
    <path clip-path="url(#pc2ea6591ca)" d="M 107.159113 295.488 
L 107.159113 295.047287 
L 108.408853 295.047287 
L 108.408853 295.488 
z
" style="fill:#db5f57;"/>
    <path clip-path="url(#pc2ea6591ca)" d="M 111.186052 295.488 
L 111.186052 294.979001 
L 112.435791 294.979001 
L 112.435791 295.488 
z
" style="fill:#57d3db;"/>
    <path clip-path="url(#pc2ea6591ca)" d="M 109.936312 295.488 
L 109.936312 294.851414 
L 111.186052 294.851414 
L 111.186052 295.488 
z
" style="fill:#db5f57;"/>
    <path clip-path="url(#pc2ea6591ca)" d="M 113.963251 295.488 
L 113.963251 294.954763 
L 115.21299 294.954763 
L 115.21299 295.488 
z
" style="fill:#57d3db;"/>
    <path clip-path="url(#pc2ea6591ca)" d="M 112.713511 295.488 
L 112.713511 294.533121 
L 113.963251 294.533121 
L 113.963251 295.488 
z
" style="fill:#db5f57;"/>
    <path clip-path="url(#pc2ea6591ca)" d="M 116.740449 295.488 
L 116.740449 294.857811 
L 117.990189 294.857811 
L 117.990189 295.488 
z
" style="fill:#57d3db;"/>
    <path clip-path="url(#pc2ea6591ca)" d="M 115.49071 295.488 
L 115.49071 294.459669 
L 116.740449 294.459669 
L 116.740449 295.488 
z
" style="fill:#db5f57;"/>
    <path clip-path="url(#pc2ea6591ca)" d="M 119.517648 295.488 
L 119.517648 294.518478 
L 120.767388 294.518478 
L 120.767388 295.488 
z
" style="fill:#57d3db;"/>
    <path clip-path="url(#pc2ea6591ca)" d="M 118.267909 295.488 
L 118.267909 294.190344 
L 119.517648 294.190344 
L 119.517648 295.488 
z
" style="fill:#db5f57;"/>
    <path clip-path="url(#pc2ea6591ca)" d="M 122.294847 295.488 
L 122.294847 294.639668 
L 123.544587 294.639668 
L 123.544587 295.488 
z
" style="fill:#57d3db;"/>
    <path clip-path="url(#pc2ea6591ca)" d="M 121.045108 295.488 
L 121.045108 293.676178 
L 122.294847 293.676178 
L 122.294847 295.488 
z
" style="fill:#db5f57;"/>
    <path clip-path="url(#pc2ea6591ca)" d="M 125.072046 295.488 
L 125.072046 294.179145 
L 126.321786 294.179145 
L 126.321786 295.488 
z
" style="fill:#57d3db;"/>
    <path clip-path="url(#pc2ea6591ca)" d="M 123.822307 295.488 
L 123.822307 293.064076 
L 125.072046 293.064076 
L 125.072046 295.488 
z
" style="fill:#db5f57;"/>
    <path clip-path="url(#pc2ea6591ca)" d="M 127.849245 295.488 
L 127.849245 294.203383 
L 129.098984 294.203383 
L 129.098984 295.488 
z
" style="fill:#57d3db;"/>
    <path clip-path="url(#pc2ea6591ca)" d="M 126.599505 295.488 
L 126.599505 292.158165 
L 127.849245 292.158165 
L 127.849245 295.488 
z
" style="fill:#db5f57;"/>
    <path clip-path="url(#pc2ea6591ca)" d="M 130.626444 295.488 
L 130.626444 294.348812 
L 131.876183 294.348812 
L 131.876183 295.488 
z
" style="fill:#57d3db;"/>
    <path clip-path="url(#pc2ea6591ca)" d="M 129.376704 295.488 
L 129.376704 291.815388 
L 130.626444 291.815388 
L 130.626444 295.488 
z
" style="fill:#db5f57;"/>
    <path clip-path="url(#pc2ea6591ca)" d="M 133.403643 295.488 
L 133.403643 294.130669 
L 134.653382 294.130669 
L 134.653382 295.488 
z
" style="fill:#57d3db;"/>
    <path clip-path="url(#pc2ea6591ca)" d="M 132.153903 295.488 
L 132.153903 292.280585 
L 133.403643 292.280585 
L 133.403643 295.488 
z
" style="fill:#db5f57;"/>
    <path clip-path="url(#pc2ea6591ca)" d="M 136.180841 295.488 
L 136.180841 294.300335 
L 137.430581 294.300335 
L 137.430581 295.488 
z
" style="fill:#57d3db;"/>
    <path clip-path="url(#pc2ea6591ca)" d="M 134.931102 295.488 
L 134.931102 291.986776 
L 136.180841 291.986776 
L 136.180841 295.488 
z
" style="fill:#db5f57;"/>
    <path clip-path="url(#pc2ea6591ca)" d="M 138.95804 295.488 
L 138.95804 294.033717 
L 140.20778 294.033717 
L 140.20778 295.488 
z
" style="fill:#57d3db;"/>
    <path clip-path="url(#pc2ea6591ca)" d="M 137.708301 295.488 
L 137.708301 292.476458 
L 138.95804 292.476458 
L 138.95804 295.488 
z
" style="fill:#db5f57;"/>
    <path clip-path="url(#pc2ea6591ca)" d="M 141.735239 295.488 
L 141.735239 293.86405 
L 142.984979 293.86405 
L 142.984979 295.488 
z
" style="fill:#57d3db;"/>
    <path clip-path="url(#pc2ea6591ca)" d="M 140.4855 295.488 
L 140.4855 291.619515 
L 141.735239 291.619515 
L 141.735239 295.488 
z
" style="fill:#db5f57;"/>
    <path clip-path="url(#pc2ea6591ca)" d="M 144.512438 295.488 
L 144.512438 294.203383 
L 145.762177 294.203383 
L 145.762177 295.488 
z
" style="fill:#57d3db;"/>
    <path clip-path="url(#pc2ea6591ca)" d="M 143.262698 295.488 
L 143.262698 291.717451 
L 144.512438 291.717451 
L 144.512438 295.488 
z
" style="fill:#db5f57;"/>
    <path clip-path="url(#pc2ea6591ca)" d="M 147.289637 295.488 
L 147.289637 293.74286 
L 148.539376 293.74286 
L 148.539376 295.488 
z
" style="fill:#57d3db;"/>
    <path clip-path="url(#pc2ea6591ca)" d="M 146.039897 295.488 
L 146.039897 291.35019 
L 147.289637 291.35019 
L 147.289637 295.488 
z
" style="fill:#db5f57;"/>
    <path clip-path="url(#pc2ea6591ca)" d="M 150.066836 295.488 
L 150.066836 294.106431 
L 151.316575 294.106431 
L 151.316575 295.488 
z
" style="fill:#57d3db;"/>
    <path clip-path="url(#pc2ea6591ca)" d="M 148.817096 295.488 
L 148.817096 291.35019 
L 150.066836 291.35019 
L 150.066836 295.488 
z
" style="fill:#db5f57;"/>
    <path clip-path="url(#pc2ea6591ca)" d="M 152.844035 295.488 
L 152.844035 293.86405 
L 154.093774 293.86405 
L 154.093774 295.488 
z
" style="fill:#57d3db;"/>
    <path clip-path="url(#pc2ea6591ca)" d="M 151.594295 295.488 
L 151.594295 291.031897 
L 152.844035 291.031897 
L 152.844035 295.488 
z
" style="fill:#db5f57;"/>
    <path clip-path="url(#pc2ea6591ca)" d="M 155.621233 295.488 
L 155.621233 293.645908 
L 156.870973 293.645908 
L 156.870973 295.488 
z
" style="fill:#57d3db;"/>
    <path clip-path="url(#pc2ea6591ca)" d="M 154.371494 295.488 
L 154.371494 290.566699 
L 155.621233 290.566699 
L 155.621233 295.488 
z
" style="fill:#db5f57;"/>
    <path clip-path="url(#pc2ea6591ca)" d="M 158.398432 295.488 
L 158.398432 293.476242 
L 159.648172 293.476242 
L 159.648172 295.488 
z
" style="fill:#57d3db;"/>
    <path clip-path="url(#pc2ea6591ca)" d="M 157.148693 295.488 
L 157.148693 290.468763 
L 158.398432 290.468763 
L 158.398432 295.488 
z
" style="fill:#db5f57;"/>
    <path clip-path="url(#pc2ea6591ca)" d="M 161.175631 295.488 
L 161.175631 293.015719 
L 162.425371 293.015719 
L 162.425371 295.488 
z
" style="fill:#57d3db;"/>
    <path clip-path="url(#pc2ea6591ca)" d="M 159.925892 295.488 
L 159.925892 290.077018 
L 161.175631 290.077018 
L 161.175631 295.488 
z
" style="fill:#db5f57;"/>
    <path clip-path="url(#pc2ea6591ca)" d="M 163.95283 295.488 
L 163.95283 293.330813 
L 165.202569 293.330813 
L 165.202569 295.488 
z
" style="fill:#57d3db;"/>
    <path clip-path="url(#pc2ea6591ca)" d="M 162.70309 295.488 
L 162.70309 289.562852 
L 163.95283 289.562852 
L 163.95283 295.488 
z
" style="fill:#db5f57;"/>
    <path clip-path="url(#pc2ea6591ca)" d="M 166.730029 295.488 
L 166.730029 292.943005 
L 167.979768 292.943005 
L 167.979768 295.488 
z
" style="fill:#57d3db;"/>
    <path clip-path="url(#pc2ea6591ca)" d="M 165.480289 295.488 
L 165.480289 289.979082 
L 166.730029 289.979082 
L 166.730029 295.488 
z
" style="fill:#db5f57;"/>
    <path clip-path="url(#pc2ea6591ca)" d="M 169.507228 295.488 
L 169.507228 292.676386 
L 170.756967 292.676386 
L 170.756967 295.488 
z
" style="fill:#57d3db;"/>
    <path clip-path="url(#pc2ea6591ca)" d="M 168.257488 295.488 
L 168.257488 289.881145 
L 169.507228 289.881145 
L 169.507228 295.488 
z
" style="fill:#db5f57;"/>
    <path clip-path="url(#pc2ea6591ca)" d="M 172.284426 295.488 
L 172.284426 292.070435 
L 173.534166 292.070435 
L 173.534166 295.488 
z
" style="fill:#57d3db;"/>
    <path clip-path="url(#pc2ea6591ca)" d="M 171.034687 295.488 
L 171.034687 288.240712 
L 172.284426 288.240712 
L 172.284426 295.488 
z
" style="fill:#db5f57;"/>
    <path clip-path="url(#pc2ea6591ca)" d="M 175.061625 295.488 
L 175.061625 292.215863 
L 176.311365 292.215863 
L 176.311365 295.488 
z
" style="fill:#57d3db;"/>
    <path clip-path="url(#pc2ea6591ca)" d="M 173.811886 295.488 
L 173.811886 288.877298 
L 175.061625 288.877298 
L 175.061625 295.488 
z
" style="fill:#db5f57;"/>
    <path clip-path="url(#pc2ea6591ca)" d="M 177.838824 295.488 
L 177.838824 292.240101 
L 179.088564 292.240101 
L 179.088564 295.488 
z
" style="fill:#57d3db;"/>
    <path clip-path="url(#pc2ea6591ca)" d="M 176.589085 295.488 
L 176.589085 288.167259 
L 177.838824 288.167259 
L 177.838824 295.488 
z
" style="fill:#db5f57;"/>
    <path clip-path="url(#pc2ea6591ca)" d="M 180.616023 295.488 
L 180.616023 291.028198 
L 181.865763 291.028198 
L 181.865763 295.488 
z
" style="fill:#57d3db;"/>
    <path clip-path="url(#pc2ea6591ca)" d="M 179.366284 295.488 
L 179.366284 286.722699 
L 180.616023 286.722699 
L 180.616023 295.488 
z
" style="fill:#db5f57;"/>
    <path clip-path="url(#pc2ea6591ca)" d="M 183.393222 295.488 
L 183.393222 291.052436 
L 184.642961 291.052436 
L 184.642961 295.488 
z
" style="fill:#57d3db;"/>
    <path clip-path="url(#pc2ea6591ca)" d="M 182.143482 295.488 
L 182.143482 286.42889 
L 183.393222 286.42889 
L 183.393222 295.488 
z
" style="fill:#db5f57;"/>
    <path clip-path="url(#pc2ea6591ca)" d="M 186.170421 295.488 
L 186.170421 290.664628 
L 187.42016 290.664628 
L 187.42016 295.488 
z
" style="fill:#57d3db;"/>
    <path clip-path="url(#pc2ea6591ca)" d="M 184.920681 295.488 
L 184.920681 286.477858 
L 186.170421 286.477858 
L 186.170421 295.488 
z
" style="fill:#db5f57;"/>
    <path clip-path="url(#pc2ea6591ca)" d="M 188.94762 295.488 
L 188.94762 290.034438 
L 190.197359 290.034438 
L 190.197359 295.488 
z
" style="fill:#57d3db;"/>
    <path clip-path="url(#pc2ea6591ca)" d="M 187.69788 295.488 
L 187.69788 285.718851 
L 188.94762 285.718851 
L 188.94762 295.488 
z
" style="fill:#db5f57;"/>
    <path clip-path="url(#pc2ea6591ca)" d="M 191.724818 295.488 
L 191.724818 289.961724 
L 192.974558 289.961724 
L 192.974558 295.488 
z
" style="fill:#57d3db;"/>
    <path clip-path="url(#pc2ea6591ca)" d="M 190.475079 295.488 
L 190.475079 284.910877 
L 191.724818 284.910877 
L 191.724818 295.488 
z
" style="fill:#db5f57;"/>
    <path clip-path="url(#pc2ea6591ca)" d="M 194.502017 295.488 
L 194.502017 289.452725 
L 195.751757 289.452725 
L 195.751757 295.488 
z
" style="fill:#57d3db;"/>
    <path clip-path="url(#pc2ea6591ca)" d="M 193.252278 295.488 
L 193.252278 284.02945 
L 194.502017 284.02945 
L 194.502017 295.488 
z
" style="fill:#db5f57;"/>
    <path clip-path="url(#pc2ea6591ca)" d="M 197.279216 295.488 
L 197.279216 289.161868 
L 198.528956 289.161868 
L 198.528956 295.488 
z
" style="fill:#57d3db;"/>
    <path clip-path="url(#pc2ea6591ca)" d="M 196.029477 295.488 
L 196.029477 281.434137 
L 197.279216 281.434137 
L 197.279216 295.488 
z
" style="fill:#db5f57;"/>
    <path clip-path="url(#pc2ea6591ca)" d="M 200.056415 295.488 
L 200.056415 287.780299 
L 201.306154 287.780299 
L 201.306154 295.488 
z
" style="fill:#57d3db;"/>
    <path clip-path="url(#pc2ea6591ca)" d="M 198.806675 295.488 
L 198.806675 280.699614 
L 200.056415 280.699614 
L 200.056415 295.488 
z
" style="fill:#db5f57;"/>
    <path clip-path="url(#pc2ea6591ca)" d="M 202.833614 295.488 
L 202.833614 286.980444 
L 204.083353 286.980444 
L 204.083353 295.488 
z
" style="fill:#57d3db;"/>
    <path clip-path="url(#pc2ea6591ca)" d="M 201.583874 295.488 
L 201.583874 279.230569 
L 202.833614 279.230569 
L 202.833614 295.488 
z
" style="fill:#db5f57;"/>
    <path clip-path="url(#pc2ea6591ca)" d="M 205.610813 295.488 
L 205.610813 284.992923 
L 206.860552 284.992923 
L 206.860552 295.488 
z
" style="fill:#57d3db;"/>
    <path clip-path="url(#pc2ea6591ca)" d="M 204.361073 295.488 
L 204.361073 276.708709 
L 205.610813 276.708709 
L 205.610813 295.488 
z
" style="fill:#db5f57;"/>
    <path clip-path="url(#pc2ea6591ca)" d="M 208.388012 295.488 
L 208.388012 283.805259 
L 209.637751 283.805259 
L 209.637751 295.488 
z
" style="fill:#57d3db;"/>
    <path clip-path="url(#pc2ea6591ca)" d="M 207.138272 295.488 
L 207.138272 273.207485 
L 208.388012 273.207485 
L 208.388012 295.488 
z
" style="fill:#db5f57;"/>
    <path clip-path="url(#pc2ea6591ca)" d="M 211.16521 295.488 
L 211.16521 282.884213 
L 212.41495 282.884213 
L 212.41495 295.488 
z
" style="fill:#57d3db;"/>
    <path clip-path="url(#pc2ea6591ca)" d="M 209.915471 295.488 
L 209.915471 272.497447 
L 211.16521 272.497447 
L 211.16521 295.488 
z
" style="fill:#db5f57;"/>
    <path clip-path="url(#pc2ea6591ca)" d="M 213.942409 295.488 
L 213.942409 282.3025 
L 215.192149 282.3025 
L 215.192149 295.488 
z
" style="fill:#57d3db;"/>
    <path clip-path="url(#pc2ea6591ca)" d="M 212.69267 295.488 
L 212.69267 270.930466 
L 213.942409 270.930466 
L 213.942409 295.488 
z
" style="fill:#db5f57;"/>
    <path clip-path="url(#pc2ea6591ca)" d="M 216.719608 295.488 
L 216.719608 279.539362 
L 217.969348 279.539362 
L 217.969348 295.488 
z
" style="fill:#57d3db;"/>
    <path clip-path="url(#pc2ea6591ca)" d="M 215.469869 295.488 
L 215.469869 269.951102 
L 216.719608 269.951102 
L 216.719608 295.488 
z
" style="fill:#db5f57;"/>
    <path clip-path="url(#pc2ea6591ca)" d="M 219.496807 295.488 
L 219.496807 279.200029 
L 220.746546 279.200029 
L 220.746546 295.488 
z
" style="fill:#57d3db;"/>
    <path clip-path="url(#pc2ea6591ca)" d="M 218.247067 295.488 
L 218.247067 266.058133 
L 219.496807 266.058133 
L 219.496807 295.488 
z
" style="fill:#db5f57;"/>
    <path clip-path="url(#pc2ea6591ca)" d="M 222.274006 295.488 
L 222.274006 277.527603 
L 223.523745 277.527603 
L 223.523745 295.488 
z
" style="fill:#57d3db;"/>
    <path clip-path="url(#pc2ea6591ca)" d="M 221.024266 295.488 
L 221.024266 262.214132 
L 222.274006 262.214132 
L 222.274006 295.488 
z
" style="fill:#db5f57;"/>
    <path clip-path="url(#pc2ea6591ca)" d="M 225.051205 295.488 
L 225.051205 277.454889 
L 226.300944 277.454889 
L 226.300944 295.488 
z
" style="fill:#57d3db;"/>
    <path clip-path="url(#pc2ea6591ca)" d="M 223.801465 295.488 
L 223.801465 259.643304 
L 225.051205 259.643304 
L 225.051205 295.488 
z
" style="fill:#db5f57;"/>
    <path clip-path="url(#pc2ea6591ca)" d="M 227.828403 295.488 
L 227.828403 274.20699 
L 229.078143 274.20699 
L 229.078143 295.488 
z
" style="fill:#57d3db;"/>
    <path clip-path="url(#pc2ea6591ca)" d="M 226.578664 295.488 
L 226.578664 255.089265 
L 227.828403 255.089265 
L 227.828403 295.488 
z
" style="fill:#db5f57;"/>
    <path clip-path="url(#pc2ea6591ca)" d="M 230.605602 295.488 
L 230.605602 273.770705 
L 231.855342 273.770705 
L 231.855342 295.488 
z
" style="fill:#57d3db;"/>
    <path clip-path="url(#pc2ea6591ca)" d="M 229.355863 295.488 
L 229.355863 253.08157 
L 230.605602 253.08157 
L 230.605602 295.488 
z
" style="fill:#db5f57;"/>
    <path clip-path="url(#pc2ea6591ca)" d="M 233.382801 295.488 
L 233.382801 272.655755 
L 234.632541 272.655755 
L 234.632541 295.488 
z
" style="fill:#57d3db;"/>
    <path clip-path="url(#pc2ea6591ca)" d="M 232.133062 295.488 
L 232.133062 249.629314 
L 233.382801 249.629314 
L 233.382801 295.488 
z
" style="fill:#db5f57;"/>
    <path clip-path="url(#pc2ea6591ca)" d="M 236.16 295.488 
L 236.16 270.401616 
L 237.409739 270.401616 
L 237.409739 295.488 
z
" style="fill:#57d3db;"/>
    <path clip-path="url(#pc2ea6591ca)" d="M 234.910261 295.488 
L 234.910261 246.54432 
L 236.16 246.54432 
L 236.16 295.488 
z
" style="fill:#db5f57;"/>
    <path clip-path="url(#pc2ea6591ca)" d="M 238.937199 295.488 
L 238.937199 265.360101 
L 240.186938 265.360101 
L 240.186938 295.488 
z
" style="fill:#57d3db;"/>
    <path clip-path="url(#pc2ea6591ca)" d="M 237.687459 295.488 
L 237.687459 243.949007 
L 238.937199 243.949007 
L 238.937199 295.488 
z
" style="fill:#db5f57;"/>
    <path clip-path="url(#pc2ea6591ca)" d="M 241.714398 295.488 
L 241.714398 266.281147 
L 242.964137 266.281147 
L 242.964137 295.488 
z
" style="fill:#57d3db;"/>
    <path clip-path="url(#pc2ea6591ca)" d="M 240.464658 295.488 
L 240.464658 235.844776 
L 241.714398 235.844776 
L 241.714398 295.488 
z
" style="fill:#db5f57;"/>
    <path clip-path="url(#pc2ea6591ca)" d="M 244.491597 295.488 
L 244.491597 262.863582 
L 245.741336 262.863582 
L 245.741336 295.488 
z
" style="fill:#57d3db;"/>
    <path clip-path="url(#pc2ea6591ca)" d="M 243.241857 295.488 
L 243.241857 233.959502 
L 244.491597 233.959502 
L 244.491597 295.488 
z
" style="fill:#db5f57;"/>
    <path clip-path="url(#pc2ea6591ca)" d="M 247.268795 295.488 
L 247.268795 262.378821 
L 248.518535 262.378821 
L 248.518535 295.488 
z
" style="fill:#57d3db;"/>
    <path clip-path="url(#pc2ea6591ca)" d="M 246.019056 295.488 
L 246.019056 228.156774 
L 247.268795 228.156774 
L 247.268795 295.488 
z
" style="fill:#db5f57;"/>
    <path clip-path="url(#pc2ea6591ca)" d="M 250.045994 295.488 
L 250.045994 260.900299 
L 251.295734 260.900299 
L 251.295734 295.488 
z
" style="fill:#57d3db;"/>
    <path clip-path="url(#pc2ea6591ca)" d="M 248.796255 295.488 
L 248.796255 224.386226 
L 250.045994 224.386226 
L 250.045994 295.488 
z
" style="fill:#db5f57;"/>
    <path clip-path="url(#pc2ea6591ca)" d="M 252.823193 295.488 
L 252.823193 257.482734 
L 254.072933 257.482734 
L 254.072933 295.488 
z
" style="fill:#57d3db;"/>
    <path clip-path="url(#pc2ea6591ca)" d="M 251.573454 295.488 
L 251.573454 221.227779 
L 252.823193 221.227779 
L 252.823193 295.488 
z
" style="fill:#db5f57;"/>
    <path clip-path="url(#pc2ea6591ca)" d="M 255.600392 295.488 
L 255.600392 253.507693 
L 256.850131 253.507693 
L 256.850131 295.488 
z
" style="fill:#57d3db;"/>
    <path clip-path="url(#pc2ea6591ca)" d="M 254.350652 295.488 
L 254.350652 215.865765 
L 255.600392 215.865765 
L 255.600392 295.488 
z
" style="fill:#db5f57;"/>
    <path clip-path="url(#pc2ea6591ca)" d="M 258.377591 295.488 
L 258.377591 253.071408 
L 259.62733 253.071408 
L 259.62733 295.488 
z
" style="fill:#57d3db;"/>
    <path clip-path="url(#pc2ea6591ca)" d="M 257.127851 295.488 
L 257.127851 209.083674 
L 258.377591 209.083674 
L 258.377591 295.488 
z
" style="fill:#db5f57;"/>
    <path clip-path="url(#pc2ea6591ca)" d="M 261.15479 295.488 
L 261.15479 250.138604 
L 262.404529 250.138604 
L 262.404529 295.488 
z
" style="fill:#57d3db;"/>
    <path clip-path="url(#pc2ea6591ca)" d="M 259.90505 295.488 
L 259.90505 207.761534 
L 261.15479 207.761534 
L 261.15479 295.488 
z
" style="fill:#db5f57;"/>
    <path clip-path="url(#pc2ea6591ca)" d="M 263.931988 295.488 
L 263.931988 246.260516 
L 265.181728 246.260516 
L 265.181728 295.488 
z
" style="fill:#57d3db;"/>
    <path clip-path="url(#pc2ea6591ca)" d="M 262.682249 295.488 
L 262.682249 203.207495 
L 263.931988 203.207495 
L 263.931988 295.488 
z
" style="fill:#db5f57;"/>
    <path clip-path="url(#pc2ea6591ca)" d="M 266.709187 295.488 
L 266.709187 242.867188 
L 267.958927 242.867188 
L 267.958927 295.488 
z
" style="fill:#57d3db;"/>
    <path clip-path="url(#pc2ea6591ca)" d="M 265.459448 295.488 
L 265.459448 195.617429 
L 266.709187 195.617429 
L 266.709187 295.488 
z
" style="fill:#db5f57;"/>
    <path clip-path="url(#pc2ea6591ca)" d="M 269.486386 295.488 
L 269.486386 238.819434 
L 270.736126 238.819434 
L 270.736126 295.488 
z
" style="fill:#57d3db;"/>
    <path clip-path="url(#pc2ea6591ca)" d="M 268.236647 295.488 
L 268.236647 187.243873 
L 269.486386 187.243873 
L 269.486386 295.488 
z
" style="fill:#db5f57;"/>
    <path clip-path="url(#pc2ea6591ca)" d="M 272.263585 295.488 
L 272.263585 237.413627 
L 273.513325 237.413627 
L 273.513325 295.488 
z
" style="fill:#57d3db;"/>
    <path clip-path="url(#pc2ea6591ca)" d="M 271.013846 295.488 
L 271.013846 185.260662 
L 272.263585 185.260662 
L 272.263585 295.488 
z
" style="fill:#db5f57;"/>
    <path clip-path="url(#pc2ea6591ca)" d="M 275.040784 295.488 
L 275.040784 232.27516 
L 276.290523 232.27516 
L 276.290523 295.488 
z
" style="fill:#57d3db;"/>
    <path clip-path="url(#pc2ea6591ca)" d="M 273.791044 295.488 
L 273.791044 179.506903 
L 275.040784 179.506903 
L 275.040784 295.488 
z
" style="fill:#db5f57;"/>
    <path clip-path="url(#pc2ea6591ca)" d="M 277.817983 295.488 
L 277.817983 229.77864 
L 279.067722 229.77864 
L 279.067722 295.488 
z
" style="fill:#57d3db;"/>
    <path clip-path="url(#pc2ea6591ca)" d="M 276.568243 295.488 
L 276.568243 182.591897 
L 277.817983 182.591897 
L 277.817983 295.488 
z
" style="fill:#db5f57;"/>
    <path clip-path="url(#pc2ea6591ca)" d="M 280.595182 295.488 
L 280.595182 236.686485 
L 281.844921 236.686485 
L 281.844921 295.488 
z
" style="fill:#57d3db;"/>
    <path clip-path="url(#pc2ea6591ca)" d="M 279.345442 295.488 
L 279.345442 195.029811 
L 280.595182 195.029811 
L 280.595182 295.488 
z
" style="fill:#db5f57;"/>
    <path clip-path="url(#pc2ea6591ca)" d="M 283.37238 295.488 
L 283.37238 233.705205 
L 284.62212 233.705205 
L 284.62212 295.488 
z
" style="fill:#57d3db;"/>
    <path clip-path="url(#pc2ea6591ca)" d="M 282.122641 295.488 
L 282.122641 196.327467 
L 283.37238 196.327467 
L 283.37238 295.488 
z
" style="fill:#db5f57;"/>
    <path clip-path="url(#pc2ea6591ca)" d="M 286.149579 295.488 
L 286.149579 231.960065 
L 287.399319 231.960065 
L 287.399319 295.488 
z
" style="fill:#57d3db;"/>
    <path clip-path="url(#pc2ea6591ca)" d="M 284.89984 295.488 
L 284.89984 192.214142 
L 286.149579 192.214142 
L 286.149579 295.488 
z
" style="fill:#db5f57;"/>
    <path clip-path="url(#pc2ea6591ca)" d="M 288.926778 295.488 
L 288.926778 230.239163 
L 290.176518 230.239163 
L 290.176518 295.488 
z
" style="fill:#57d3db;"/>
    <path clip-path="url(#pc2ea6591ca)" d="M 287.677039 295.488 
L 287.677039 193.658703 
L 288.926778 193.658703 
L 288.926778 295.488 
z
" style="fill:#db5f57;"/>
    <path clip-path="url(#pc2ea6591ca)" d="M 291.703977 295.488 
L 291.703977 228.469785 
L 292.953716 228.469785 
L 292.953716 295.488 
z
" style="fill:#57d3db;"/>
    <path clip-path="url(#pc2ea6591ca)" d="M 290.454237 295.488 
L 290.454237 193.095569 
L 291.703977 193.095569 
L 291.703977 295.488 
z
" style="fill:#db5f57;"/>
    <path clip-path="url(#pc2ea6591ca)" d="M 294.481176 295.488 
L 294.481176 217.223329 
L 295.730915 217.223329 
L 295.730915 295.488 
z
" style="fill:#57d3db;"/>
    <path clip-path="url(#pc2ea6591ca)" d="M 293.231436 295.488 
L 293.231436 184.232331 
L 294.481176 184.232331 
L 294.481176 295.488 
z
" style="fill:#db5f57;"/>
    <path clip-path="url(#pc2ea6591ca)" d="M 297.258375 295.488 
L 297.258375 203.504592 
L 298.508114 203.504592 
L 298.508114 295.488 
z
" style="fill:#57d3db;"/>
    <path clip-path="url(#pc2ea6591ca)" d="M 296.008635 295.488 
L 296.008635 169.688786 
L 297.258375 169.688786 
L 297.258375 295.488 
z
" style="fill:#db5f57;"/>
    <path clip-path="url(#pc2ea6591ca)" d="M 300.035574 295.488 
L 300.035574 187.774096 
L 301.285313 187.774096 
L 301.285313 295.488 
z
" style="fill:#57d3db;"/>
    <path clip-path="url(#pc2ea6591ca)" d="M 298.785834 295.488 
L 298.785834 166.873117 
L 300.035574 166.873117 
L 300.035574 295.488 
z
" style="fill:#db5f57;"/>
    <path clip-path="url(#pc2ea6591ca)" d="M 302.812772 295.488 
L 302.812772 180.042157 
L 304.062512 180.042157 
L 304.062512 295.488 
z
" style="fill:#57d3db;"/>
    <path clip-path="url(#pc2ea6591ca)" d="M 301.563033 295.488 
L 301.563033 158.866822 
L 302.812772 158.866822 
L 302.812772 295.488 
z
" style="fill:#db5f57;"/>
    <path clip-path="url(#pc2ea6591ca)" d="M 305.589971 295.488 
L 305.589971 165.014564 
L 306.839711 165.014564 
L 306.839711 295.488 
z
" style="fill:#57d3db;"/>
    <path clip-path="url(#pc2ea6591ca)" d="M 304.340232 295.488 
L 304.340232 149.685291 
L 305.589971 149.685291 
L 305.589971 295.488 
z
" style="fill:#db5f57;"/>
    <path clip-path="url(#pc2ea6591ca)" d="M 308.36717 295.488 
L 308.36717 146.981454 
L 309.61691 146.981454 
L 309.61691 295.488 
z
" style="fill:#57d3db;"/>
    <path clip-path="url(#pc2ea6591ca)" d="M 307.117431 295.488 
L 307.117431 137.541186 
L 308.36717 137.541186 
L 308.36717 295.488 
z
" style="fill:#db5f57;"/>
    <path clip-path="url(#pc2ea6591ca)" d="M 311.144369 295.488 
L 311.144369 128.269677 
L 312.394108 128.269677 
L 312.394108 295.488 
z
" style="fill:#57d3db;"/>
    <path clip-path="url(#pc2ea6591ca)" d="M 309.894629 295.488 
L 309.894629 130.318382 
L 311.144369 130.318382 
L 311.144369 295.488 
z
" style="fill:#db5f57;"/>
    <path clip-path="url(#pc2ea6591ca)" d="M 313.921568 295.488 
L 313.921568 115.084177 
L 315.171307 115.084177 
L 315.171307 295.488 
z
" style="fill:#57d3db;"/>
    <path clip-path="url(#pc2ea6591ca)" d="M 312.671828 295.488 
L 312.671828 124.956368 
L 313.921568 124.956368 
L 313.921568 295.488 
z
" style="fill:#db5f57;"/>
    <path clip-path="url(#pc2ea6591ca)" d="M 316.698767 295.488 
L 316.698767 90.749172 
L 317.948506 90.749172 
L 317.948506 295.488 
z
" style="fill:#57d3db;"/>
    <path clip-path="url(#pc2ea6591ca)" d="M 315.449027 295.488 
L 315.449027 119.373997 
L 316.698767 119.373997 
L 316.698767 295.488 
z
" style="fill:#db5f57;"/>
    <path clip-path="url(#pc2ea6591ca)" d="M 319.475965 295.488 
L 319.475965 71.261778 
L 320.725705 71.261778 
L 320.725705 295.488 
z
" style="fill:#57d3db;"/>
    <path clip-path="url(#pc2ea6591ca)" d="M 318.226226 295.488 
L 318.226226 118.541539 
L 319.475965 118.541539 
L 319.475965 295.488 
z
" style="fill:#db5f57;"/>
    <path clip-path="url(#pc2ea6591ca)" d="M 322.253164 295.488 
L 322.253164 62.608794 
L 323.502904 62.608794 
L 323.502904 295.488 
z
" style="fill:#57d3db;"/>
    <path clip-path="url(#pc2ea6591ca)" d="M 321.003425 295.488 
L 321.003425 124.466686 
L 322.253164 124.466686 
L 322.253164 295.488 
z
" style="fill:#db5f57;"/>
    <path clip-path="url(#pc2ea6591ca)" d="M 325.030363 295.488 
L 325.030363 58.633753 
L 326.280103 58.633753 
L 326.280103 295.488 
z
" style="fill:#57d3db;"/>
    <path clip-path="url(#pc2ea6591ca)" d="M 323.780624 295.488 
L 323.780624 135.876269 
L 325.030363 135.876269 
L 325.030363 295.488 
z
" style="fill:#db5f57;"/>
    <path clip-path="url(#pc2ea6591ca)" d="M 327.807562 295.488 
L 327.807562 53.568 
L 329.057302 53.568 
L 329.057302 295.488 
z
" style="fill:#57d3db;"/>
    <path clip-path="url(#pc2ea6591ca)" d="M 326.557823 295.488 
L 326.557823 141.115862 
L 327.807562 141.115862 
L 327.807562 295.488 
z
" style="fill:#db5f57;"/>
    <path clip-path="url(#pc2ea6591ca)" d="M 330.584761 295.488 
L 330.584761 58.05204 
L 331.8345 58.05204 
L 331.8345 295.488 
z
" style="fill:#57d3db;"/>
    <path clip-path="url(#pc2ea6591ca)" d="M 329.335021 295.488 
L 329.335021 159.527892 
L 330.584761 159.527892 
L 330.584761 295.488 
z
" style="fill:#db5f57;"/>
    <path clip-path="url(#pc2ea6591ca)" d="M 333.36196 295.488 
L 333.36196 66.268739 
L 334.611699 66.268739 
L 334.611699 295.488 
z
" style="fill:#57d3db;"/>
    <path clip-path="url(#pc2ea6591ca)" d="M 332.11222 295.488 
L 332.11222 176.862622 
L 333.36196 176.862622 
L 333.36196 295.488 
z
" style="fill:#db5f57;"/>
    <path clip-path="url(#pc2ea6591ca)" d="M 336.139159 295.488 
L 336.139159 73.443203 
L 337.388898 73.443203 
L 337.388898 295.488 
z
" style="fill:#57d3db;"/>
    <path clip-path="url(#pc2ea6591ca)" d="M 334.889419 295.488 
L 334.889419 194.66255 
L 336.139159 194.66255 
L 336.139159 295.488 
z
" style="fill:#db5f57;"/>
    <path clip-path="url(#pc2ea6591ca)" d="M 338.916357 295.488 
L 338.916357 100.686774 
L 340.166097 100.686774 
L 340.166097 295.488 
z
" style="fill:#57d3db;"/>
    <path clip-path="url(#pc2ea6591ca)" d="M 337.666618 295.488 
L 337.666618 212.609382 
L 338.916357 212.609382 
L 338.916357 295.488 
z
" style="fill:#db5f57;"/>
    <path clip-path="url(#pc2ea6591ca)" d="M 341.693556 295.488 
L 341.693556 120.925547 
L 342.943296 120.925547 
L 342.943296 295.488 
z
" style="fill:#57d3db;"/>
    <path clip-path="url(#pc2ea6591ca)" d="M 340.443817 295.488 
L 340.443817 229.087169 
L 341.693556 229.087169 
L 341.693556 295.488 
z
" style="fill:#db5f57;"/>
    <path clip-path="url(#pc2ea6591ca)" d="M 344.470755 295.488 
L 344.470755 143.515412 
L 345.720495 143.515412 
L 345.720495 295.488 
z
" style="fill:#57d3db;"/>
    <path clip-path="url(#pc2ea6591ca)" d="M 343.221016 295.488 
L 343.221016 242.430994 
L 344.470755 242.430994 
L 344.470755 295.488 
z
" style="fill:#db5f57;"/>
    <path clip-path="url(#pc2ea6591ca)" d="M 347.247954 295.488 
L 347.247954 170.637793 
L 348.497693 170.637793 
L 348.497693 295.488 
z
" style="fill:#57d3db;"/>
    <path clip-path="url(#pc2ea6591ca)" d="M 345.998214 295.488 
L 345.998214 257.562157 
L 347.247954 257.562157 
L 347.247954 295.488 
z
" style="fill:#db5f57;"/>
    <path clip-path="url(#pc2ea6591ca)" d="M 350.025153 295.488 
L 350.025153 201.080786 
L 351.274892 201.080786 
L 351.274892 295.488 
z
" style="fill:#57d3db;"/>
    <path clip-path="url(#pc2ea6591ca)" d="M 348.775413 295.488 
L 348.775413 267.869955 
L 350.025153 267.869955 
L 350.025153 295.488 
z
" style="fill:#db5f57;"/>
    <path clip-path="url(#pc2ea6591ca)" d="M 352.802352 295.488 
L 352.802352 247.060372 
L 354.052091 247.060372 
L 354.052091 295.488 
z
" style="fill:#57d3db;"/>
    <path clip-path="url(#pc2ea6591ca)" d="M 351.552612 295.488 
L 351.552612 282.82973 
L 352.802352 282.82973 
L 352.802352 295.488 
z
" style="fill:#db5f57;"/>
    <path clip-path="url(#pc2ea6591ca)" d="M 355.579551 295.488 
L 355.579551 266.572004 
L 356.82929 266.572004 
L 356.82929 295.488 
z
" style="fill:#57d3db;"/>
    <path clip-path="url(#pc2ea6591ca)" d="M 354.329811 295.488 
L 354.329811 289.171107 
L 355.579551 289.171107 
L 355.579551 295.488 
z
" style="fill:#db5f57;"/>
    <path clip-path="url(#pc2ea6591ca)" d="M 358.356749 295.488 
L 358.356749 277.309461 
L 359.606489 277.309461 
L 359.606489 295.488 
z
" style="fill:#57d3db;"/>
    <path clip-path="url(#pc2ea6591ca)" d="M 357.10701 295.488 
L 357.10701 291.76642 
L 358.356749 291.76642 
L 358.356749 295.488 
z
" style="fill:#db5f57;"/>
    <path clip-path="url(#pc2ea6591ca)" d="M 361.133948 295.488 
L 361.133948 283.102355 
L 362.383688 283.102355 
L 362.383688 295.488 
z
" style="fill:#57d3db;"/>
    <path clip-path="url(#pc2ea6591ca)" d="M 359.884209 295.488 
L 359.884209 293.406853 
L 361.133948 293.406853 
L 361.133948 295.488 
z
" style="fill:#db5f57;"/>
    <path clip-path="url(#pc2ea6591ca)" d="M 363.911147 295.488 
L 363.911147 284.992923 
L 365.160887 284.992923 
L 365.160887 295.488 
z
" style="fill:#57d3db;"/>
    <path clip-path="url(#pc2ea6591ca)" d="M 362.661408 295.488 
L 362.661408 294.067923 
L 363.911147 294.067923 
L 363.911147 295.488 
z
" style="fill:#db5f57;"/>
    <path clip-path="url(#pc2ea6591ca)" d="M 366.688346 295.488 
L 366.688346 286.301778 
L 367.938085 286.301778 
L 367.938085 295.488 
z
" style="fill:#57d3db;"/>
    <path clip-path="url(#pc2ea6591ca)" d="M 365.438606 295.488 
L 365.438606 294.092407 
L 366.688346 294.092407 
L 366.688346 295.488 
z
" style="fill:#db5f57;"/>
    <path clip-path="url(#pc2ea6591ca)" d="M 369.465545 295.488 
L 369.465545 290.422247 
L 370.715284 290.422247 
L 370.715284 295.488 
z
" style="fill:#57d3db;"/>
    <path clip-path="url(#pc2ea6591ca)" d="M 368.215805 295.488 
L 368.215805 294.777962 
L 369.465545 294.777962 
L 369.465545 295.488 
z
" style="fill:#db5f57;"/>
    <path clip-path="url(#pc2ea6591ca)" d="M 372.242744 295.488 
L 372.242744 292.094673 
L 373.492483 292.094673 
L 373.492483 295.488 
z
" style="fill:#57d3db;"/>
    <path clip-path="url(#pc2ea6591ca)" d="M 370.993004 295.488 
L 370.993004 295.218675 
L 372.242744 295.218675 
L 372.242744 295.488 
z
" style="fill:#db5f57;"/>
    <path clip-path="url(#pc2ea6591ca)" d="M 375.019942 295.488 
L 375.019942 293.888289 
L 376.269682 293.888289 
L 376.269682 295.488 
z
" style="fill:#57d3db;"/>
    <path clip-path="url(#pc2ea6591ca)" d="M 373.770203 295.488 
L 373.770203 295.341096 
L 375.019942 295.341096 
L 375.019942 295.488 
z
" style="fill:#db5f57;"/>
    <path clip-path="url(#pc2ea6591ca)" d="M 377.797141 295.488 
L 377.797141 294.663906 
L 379.046881 294.663906 
L 379.046881 295.488 
z
" style="fill:#57d3db;"/>
    <path clip-path="url(#pc2ea6591ca)" d="M 376.547402 295.488 
L 376.547402 295.463516 
L 377.797141 295.463516 
L 377.797141 295.488 
z
" style="fill:#db5f57;"/>
    <path clip-path="url(#pc2ea6591ca)" d="M 379.324601 295.488 
L 379.324601 295.172905 
L 381.82408 295.172905 
L 381.82408 295.488 
z
" style="fill:#57d3db;"/>
    <path clip-path="url(#pc2ea6591ca)" d="M 382.1018 295.488 
L 382.1018 295.36681 
L 384.601278 295.36681 
L 384.601278 295.488 
z
" style="fill:#57d3db;"/>
    <path clip-path="url(#pc2ea6591ca)" d="M 386.128738 295.488 
L 386.128738 295.439524 
L 387.378477 295.439524 
L 387.378477 295.488 
z
" style="fill:#57d3db;"/>
    <path clip-path="url(#pc2ea6591ca)" d="M 384.878998 295.488 
L 384.878998 295.463516 
L 386.128738 295.463516 
L 386.128738 295.488 
z
" style="fill:#db5f57;"/>
    <path clip-path="url(#pc2ea6591ca)" d="M 393.210595 295.488 
L 393.210595 295.463762 
L 395.710074 295.463762 
L 395.710074 295.488 
z
" style="fill:#57d3db;"/>
    <path clip-path="url(#pc2ea6591ca)" d="M 395.987794 295.488 
L 395.987794 295.463516 
L 398.487273 295.463516 
L 398.487273 295.488 
z
" style="fill:#db5f57;"/>
   </g>
   <g id="patch_3">
    <path d="M 57.6 307.584 
L 57.6 41.472 
" style="fill:none;stroke:#000000;stroke-linecap:square;stroke-linejoin:miter;"/>
   </g>
   <g id="patch_4">
    <path d="M 57.6 307.584 
L 414.72 307.584 
" style="fill:none;stroke:#000000;stroke-linecap:square;stroke-linejoin:miter;"/>
   </g>
   <g id="patch_5">
    <path d="M 421.92 209.362969 
L 470.759 209.362969 
L 470.759 136.237031 
L 421.92 136.237031 
z
" style="fill:#ffffff;"/>
   </g>
   <g id="text_14">
    <!-- sex -->
    <defs>
     <path d="M 44.28125 53.078125 
L 44.28125 44.578125 
Q 40.484375 46.53125 36.375 47.5 
Q 32.28125 48.484375 27.875 48.484375 
Q 21.1875 48.484375 17.84375 46.4375 
Q 14.5 44.390625 14.5 40.28125 
Q 14.5 37.15625 16.890625 35.375 
Q 19.28125 33.59375 26.515625 31.984375 
L 29.59375 31.296875 
Q 39.15625 29.25 43.1875 25.515625 
Q 47.21875 21.78125 47.21875 15.09375 
Q 47.21875 7.46875 41.1875 3.015625 
Q 35.15625 -1.421875 24.609375 -1.421875 
Q 20.21875 -1.421875 15.453125 -0.5625 
Q 10.6875 0.296875 5.421875 2 
L 5.421875 11.28125 
Q 10.40625 8.6875 15.234375 7.390625 
Q 20.0625 6.109375 24.8125 6.109375 
Q 31.15625 6.109375 34.5625 8.28125 
Q 37.984375 10.453125 37.984375 14.40625 
Q 37.984375 18.0625 35.515625 20.015625 
Q 33.0625 21.96875 24.703125 23.78125 
L 21.578125 24.515625 
Q 13.234375 26.265625 9.515625 29.90625 
Q 5.8125 33.546875 5.8125 39.890625 
Q 5.8125 47.609375 11.28125 51.796875 
Q 16.75 56 26.8125 56 
Q 31.78125 56 36.171875 55.265625 
Q 40.578125 54.546875 44.28125 53.078125 
z
" id="DejaVuSans-115"/>
     <path d="M 54.890625 54.6875 
L 35.109375 28.078125 
L 55.90625 0 
L 45.3125 0 
L 29.390625 21.484375 
L 13.484375 0 
L 2.875 0 
L 24.125 28.609375 
L 4.6875 54.6875 
L 15.28125 54.6875 
L 29.78125 35.203125 
L 44.28125 54.6875 
z
" id="DejaVuSans-120"/>
    </defs>
    <g transform="translate(434.12 159.830625)scale(0.11 -0.11)">
     <use xlink:href="#DejaVuSans-115"/>
     <use x="52.099609" xlink:href="#DejaVuSans-101"/>
     <use x="111.873047" xlink:href="#DejaVuSans-120"/>
    </g>
   </g>
   <g id="patch_6">
    <path clip-path="url(#p97a195e542)" d="M 434.12 179.322969 
L 449.96 179.322969 
L 449.96 163.482969 
L 434.12 163.482969 
z
" style="fill:none;"/>
   </g>
   <g id="patch_7">
    <path clip-path="url(#p97a195e542)" d="M 434.12 179.322969 
L 449.96 179.322969 
L 449.96 163.482969 
L 434.12 163.482969 
z
" style="fill:#db5f57;"/>
   </g>
   <g id="text_15">
    <!-- 1 -->
    <g transform="translate(452.96 173.831219)scale(0.088 -0.088)">
     <use xlink:href="#DejaVuSans-49"/>
    </g>
   </g>
   <g id="patch_8">
    <path clip-path="url(#pf5a687edfa)" d="M 434.12 197.162969 
L 449.96 197.162969 
L 449.96 181.322969 
L 434.12 181.322969 
z
" style="fill:none;"/>
   </g>
   <g id="patch_9">
    <path clip-path="url(#pf5a687edfa)" d="M 434.12 197.162969 
L 449.96 197.162969 
L 449.96 181.322969 
L 434.12 181.322969 
z
" style="fill:#57d3db;"/>
   </g>
   <g id="text_16">
    <!-- 2 -->
    <g transform="translate(452.96 191.671219)scale(0.088 -0.088)">
     <use xlink:href="#DejaVuSans-50"/>
    </g>
   </g>
  </g>
  <g id="text_17">
   <!-- Age distribution (N=414286) -->
   <defs>
    <path id="DejaVuSans-32"/>
    <path d="M 45.40625 46.390625 
L 45.40625 75.984375 
L 54.390625 75.984375 
L 54.390625 0 
L 45.40625 0 
L 45.40625 8.203125 
Q 42.578125 3.328125 38.25 0.953125 
Q 33.9375 -1.421875 27.875 -1.421875 
Q 17.96875 -1.421875 11.734375 6.484375 
Q 5.515625 14.40625 5.515625 27.296875 
Q 5.515625 40.1875 11.734375 48.09375 
Q 17.96875 56 27.875 56 
Q 33.9375 56 38.25 53.625 
Q 42.578125 51.265625 45.40625 46.390625 
z
M 14.796875 27.296875 
Q 14.796875 17.390625 18.875 11.75 
Q 22.953125 6.109375 30.078125 6.109375 
Q 37.203125 6.109375 41.296875 11.75 
Q 45.40625 17.390625 45.40625 27.296875 
Q 45.40625 37.203125 41.296875 42.84375 
Q 37.203125 48.484375 30.078125 48.484375 
Q 22.953125 48.484375 18.875 42.84375 
Q 14.796875 37.203125 14.796875 27.296875 
z
" id="DejaVuSans-100"/>
    <path d="M 9.421875 54.6875 
L 18.40625 54.6875 
L 18.40625 0 
L 9.421875 0 
z
M 9.421875 75.984375 
L 18.40625 75.984375 
L 18.40625 64.59375 
L 9.421875 64.59375 
z
" id="DejaVuSans-105"/>
    <path d="M 18.3125 70.21875 
L 18.3125 54.6875 
L 36.8125 54.6875 
L 36.8125 47.703125 
L 18.3125 47.703125 
L 18.3125 18.015625 
Q 18.3125 11.328125 20.140625 9.421875 
Q 21.96875 7.515625 27.59375 7.515625 
L 36.8125 7.515625 
L 36.8125 0 
L 27.59375 0 
Q 17.1875 0 13.234375 3.875 
Q 9.28125 7.765625 9.28125 18.015625 
L 9.28125 47.703125 
L 2.6875 47.703125 
L 2.6875 54.6875 
L 9.28125 54.6875 
L 9.28125 70.21875 
z
" id="DejaVuSans-116"/>
    <path d="M 48.6875 27.296875 
Q 48.6875 37.203125 44.609375 42.84375 
Q 40.53125 48.484375 33.40625 48.484375 
Q 26.265625 48.484375 22.1875 42.84375 
Q 18.109375 37.203125 18.109375 27.296875 
Q 18.109375 17.390625 22.1875 11.75 
Q 26.265625 6.109375 33.40625 6.109375 
Q 40.53125 6.109375 44.609375 11.75 
Q 48.6875 17.390625 48.6875 27.296875 
z
M 18.109375 46.390625 
Q 20.953125 51.265625 25.265625 53.625 
Q 29.59375 56 35.59375 56 
Q 45.5625 56 51.78125 48.09375 
Q 58.015625 40.1875 58.015625 27.296875 
Q 58.015625 14.40625 51.78125 6.484375 
Q 45.5625 -1.421875 35.59375 -1.421875 
Q 29.59375 -1.421875 25.265625 0.953125 
Q 20.953125 3.328125 18.109375 8.203125 
L 18.109375 0 
L 9.078125 0 
L 9.078125 75.984375 
L 18.109375 75.984375 
z
" id="DejaVuSans-98"/>
    <path d="M 30.609375 48.390625 
Q 23.390625 48.390625 19.1875 42.75 
Q 14.984375 37.109375 14.984375 27.296875 
Q 14.984375 17.484375 19.15625 11.84375 
Q 23.34375 6.203125 30.609375 6.203125 
Q 37.796875 6.203125 41.984375 11.859375 
Q 46.1875 17.53125 46.1875 27.296875 
Q 46.1875 37.015625 41.984375 42.703125 
Q 37.796875 48.390625 30.609375 48.390625 
z
M 30.609375 56 
Q 42.328125 56 49.015625 48.375 
Q 55.71875 40.765625 55.71875 27.296875 
Q 55.71875 13.875 49.015625 6.21875 
Q 42.328125 -1.421875 30.609375 -1.421875 
Q 18.84375 -1.421875 12.171875 6.21875 
Q 5.515625 13.875 5.515625 27.296875 
Q 5.515625 40.765625 12.171875 48.375 
Q 18.84375 56 30.609375 56 
z
" id="DejaVuSans-111"/>
    <path d="M 31 75.875 
Q 24.46875 64.65625 21.28125 53.65625 
Q 18.109375 42.671875 18.109375 31.390625 
Q 18.109375 20.125 21.3125 9.0625 
Q 24.515625 -2 31 -13.1875 
L 23.1875 -13.1875 
Q 15.875 -1.703125 12.234375 9.375 
Q 8.59375 20.453125 8.59375 31.390625 
Q 8.59375 42.28125 12.203125 53.3125 
Q 15.828125 64.359375 23.1875 75.875 
z
" id="DejaVuSans-40"/>
    <path d="M 9.8125 72.90625 
L 23.09375 72.90625 
L 55.421875 11.921875 
L 55.421875 72.90625 
L 64.984375 72.90625 
L 64.984375 0 
L 51.703125 0 
L 19.390625 60.984375 
L 19.390625 0 
L 9.8125 0 
z
" id="DejaVuSans-78"/>
    <path d="M 10.59375 45.40625 
L 73.1875 45.40625 
L 73.1875 37.203125 
L 10.59375 37.203125 
z
M 10.59375 25.484375 
L 73.1875 25.484375 
L 73.1875 17.1875 
L 10.59375 17.1875 
z
" id="DejaVuSans-61"/>
    <path d="M 31.78125 34.625 
Q 24.75 34.625 20.71875 30.859375 
Q 16.703125 27.09375 16.703125 20.515625 
Q 16.703125 13.921875 20.71875 10.15625 
Q 24.75 6.390625 31.78125 6.390625 
Q 38.8125 6.390625 42.859375 10.171875 
Q 46.921875 13.96875 46.921875 20.515625 
Q 46.921875 27.09375 42.890625 30.859375 
Q 38.875 34.625 31.78125 34.625 
z
M 21.921875 38.8125 
Q 15.578125 40.375 12.03125 44.71875 
Q 8.5 49.078125 8.5 55.328125 
Q 8.5 64.0625 14.71875 69.140625 
Q 20.953125 74.21875 31.78125 74.21875 
Q 42.671875 74.21875 48.875 69.140625 
Q 55.078125 64.0625 55.078125 55.328125 
Q 55.078125 49.078125 51.53125 44.71875 
Q 48 40.375 41.703125 38.8125 
Q 48.828125 37.15625 52.796875 32.3125 
Q 56.78125 27.484375 56.78125 20.515625 
Q 56.78125 9.90625 50.3125 4.234375 
Q 43.84375 -1.421875 31.78125 -1.421875 
Q 19.734375 -1.421875 13.25 4.234375 
Q 6.78125 9.90625 6.78125 20.515625 
Q 6.78125 27.484375 10.78125 32.3125 
Q 14.796875 37.15625 21.921875 38.8125 
z
M 18.3125 54.390625 
Q 18.3125 48.734375 21.84375 45.5625 
Q 25.390625 42.390625 31.78125 42.390625 
Q 38.140625 42.390625 41.71875 45.5625 
Q 45.3125 48.734375 45.3125 54.390625 
Q 45.3125 60.0625 41.71875 63.234375 
Q 38.140625 66.40625 31.78125 66.40625 
Q 25.390625 66.40625 21.84375 63.234375 
Q 18.3125 60.0625 18.3125 54.390625 
z
" id="DejaVuSans-56"/>
    <path d="M 8.015625 75.875 
L 15.828125 75.875 
Q 23.140625 64.359375 26.78125 53.3125 
Q 30.421875 42.28125 30.421875 31.390625 
Q 30.421875 20.453125 26.78125 9.375 
Q 23.140625 -1.703125 15.828125 -13.1875 
L 8.015625 -13.1875 
Q 14.5 -2 17.703125 9.0625 
Q 20.90625 20.125 20.90625 31.390625 
Q 20.90625 42.671875 17.703125 53.65625 
Q 14.5 64.65625 8.015625 75.875 
z
" id="DejaVuSans-41"/>
   </defs>
   <g transform="translate(135.014531 32.596567)scale(0.132 -0.132)">
    <use xlink:href="#DejaVuSans-65"/>
    <use x="68.408203" xlink:href="#DejaVuSans-103"/>
    <use x="131.884766" xlink:href="#DejaVuSans-101"/>
    <use x="193.408203" xlink:href="#DejaVuSans-32"/>
    <use x="225.195312" xlink:href="#DejaVuSans-100"/>
    <use x="288.671875" xlink:href="#DejaVuSans-105"/>
    <use x="316.455078" xlink:href="#DejaVuSans-115"/>
    <use x="368.554688" xlink:href="#DejaVuSans-116"/>
    <use x="407.763672" xlink:href="#DejaVuSans-114"/>
    <use x="448.876953" xlink:href="#DejaVuSans-105"/>
    <use x="476.660156" xlink:href="#DejaVuSans-98"/>
    <use x="540.136719" xlink:href="#DejaVuSans-117"/>
    <use x="603.515625" xlink:href="#DejaVuSans-116"/>
    <use x="642.724609" xlink:href="#DejaVuSans-105"/>
    <use x="670.507812" xlink:href="#DejaVuSans-111"/>
    <use x="731.689453" xlink:href="#DejaVuSans-110"/>
    <use x="795.068359" xlink:href="#DejaVuSans-32"/>
    <use x="826.855469" xlink:href="#DejaVuSans-40"/>
    <use x="865.869141" xlink:href="#DejaVuSans-78"/>
    <use x="940.673828" xlink:href="#DejaVuSans-61"/>
    <use x="1024.462891" xlink:href="#DejaVuSans-52"/>
    <use x="1088.085938" xlink:href="#DejaVuSans-49"/>
    <use x="1151.708984" xlink:href="#DejaVuSans-52"/>
    <use x="1215.332031" xlink:href="#DejaVuSans-50"/>
    <use x="1278.955078" xlink:href="#DejaVuSans-56"/>
    <use x="1342.578125" xlink:href="#DejaVuSans-54"/>
    <use x="1406.201172" xlink:href="#DejaVuSans-41"/>
   </g>
  </g>
 </g>
 <defs>
  <clipPath id="pc2ea6591ca">
   <rect height="266.112" width="357.12" x="57.6" y="41.472"/>
  </clipPath>
  <clipPath id="p97a195e542">
   <path d="M 434.12 179.322969 
L 434.12 163.482969 
L 449.96 163.482969 
L 449.96 179.322969 
"/>
  </clipPath>
  <clipPath id="pf5a687edfa">
   <path d="M 434.12 197.162969 
L 434.12 181.322969 
L 449.96 181.322969 
L 449.96 197.162969 
"/>
  </clipPath>
 </defs>
</svg>